<?xml version="1.0" encoding="utf-8"?>
<!-- Generator: Adobe Illustrator 19.2.1, SVG Export Plug-In . SVG Version: 6.00 Build 0)  -->
<svg version="1.1" id="Layer_1" xmlns="http://www.w3.org/2000/svg" xmlns:xlink="http://www.w3.org/1999/xlink" x="0px" y="0px"
	 viewBox="0 0 80 80" style="enable-background:new 0 0 80 80;" xml:space="preserve">
<style type="text/css">
	.st0{fill:#0D308A;}
	.st1{fill:#FFFFFF;}
</style>
<title>Layer 1</title>
<path class="st0" d="M59.5,3.3L60,3.4L59.5,3.3z M59.4,3.5l0.3,0.2V3.5H59.4z M59.5,4.6L60,4.5V3.9C59.5,4,59.5,4.1,59.5,4.6z
	 M60.6,4.1v0.3c-0.4,0-0.5,0-0.6,0.4L59.4,5c0.2,1-0.4,1.8-0.9,2.6l-0.4,0.9h0.6l-0.6,0.8c0,0.3,0.1,0.5,0,0.8
	c-0.1,0.2-0.4,0.6-0.4,1s0.2,0.5,0.2,0.7s-0.1,0.4-0.1,0.8l0.1,1.1L57.4,15c-0.2,0.6-0.1,1-0.5,1.8c-0.2,0.6-0.5,0.6-0.6,1L56,18.5
	c-0.3,0.6-1.1,0.9-1.7,0.8c-0.2-0.1-0.7-0.5-0.9-0.6c-0.5-0.3-0.8-0.3-0.9-0.9l0.3-0.2h-0.5c0.3-0.4,0.4-0.5,0.8-0.5l0.6-0.5v-0.2
	c-0.8-0.3-1.3,0.1-1.5,0.9l-1.8-0.6l-0.8-0.9l-1.5-0.7c0.2-0.4,0.2-0.4,0-0.7H48l-0.2,0.2v-0.4l-0.3,0.4h-0.4l0.1-0.4L47,14.5
	l-1.2-1.1l-0.1-0.2c-0.3,0-0.4,0-0.6-0.2c-0.5-0.6,0.4-1.4,0.8-1.6l0.4-1.3L46,10.4l-0.1-0.6l0.7-0.3l0.3-0.3l-0.1,0.4L47.7,9
	c-0.1-0.4-0.2-0.4,0.1-0.6l-0.1-0.3l0.7-0.6L48,6.9l-0.5,0.2l-0.2-0.8l0.3-0.1c-0.4,0-0.8,0.5-1.2,0.6l0.3,0.1l-0.2,0.2l0.4,0.1
	c-0.2,0.4-0.3,0.4-0.6,0.5c0.1-0.3,0.2-0.4,0-0.6l0.1-0.3l-0.7,0.4l-0.1-0.1l0.6-0.5L46,6.4l0.6-0.7l-1.3,1.1
	c-0.6,0-0.9,0.5-1.1-0.2l-0.3,0.1l-0.2-0.3c-1,0.4-0.5,0.1-1.3,0.1c-0.2-0.3-0.3-0.3-0.6-0.3L42,6h-1.1c0.1-0.2,0.2-0.2,0-0.4
	L41,5.4c-0.4,0.2-0.4,0.4-0.5,0.5c-0.3,0-0.6-0.6-0.7-0.7l-0.6,0.4l-0.1-1.2c-0.3,0.2-0.3,0.2-0.4,0.5l-0.3-0.2l-0.2,0.2
	c-0.5-0.3-0.7-0.1-1,0.3c0.3,0.2,0.6,0.4,0.6,0.6L38,5.5l0.5,0.1l-0.1-0.2c0.3,0.2,0.3,0.2,0.3,0.6h0.4c0,0.4,0,0.8-0.6,0.6
	l-0.1,0.3L37.9,7h-0.6l-0.6-0.1l-0.2-0.4l-0.2,0.4H36l0.1-0.3c-0.4,0.1-0.4,0.3-0.4,0.6l-0.4,0.3l-0.5-0.2c-0.1,0.2-0.1,0.4-0.4,0.3
	c-0.2,0.4-0.2,0.7-0.6,0.8l-0.4,0.5v0.2L34,9.3c-0.4,0.3-0.4,0.4-0.8,0.4l-0.2,1l-0.6,0.2l-0.3,0.8l0.6,0.3l0.2,0.6l-0.4-0.2
	c-0.2,0.3-0.3,0.2-0.6,0.1l-0.1,0.3c-0.4-0.2-1.1-0.5-1.6-0.3c-0.2,0-0.5,0.4-0.6,0.5l0.3-0.7L29.3,12c-0.2-0.6-0.9-1.6-1.6-1.4
	v-0.2l-0.2,0.1c-0.3-0.4-0.5-0.4-0.8-0.2l-0.2,0.8l-0.3-0.4l0.3-0.1v-0.2l-0.3-0.1l-0.1,0.2l0.1,0.1L25.6,11l-0.1-0.6h-0.4l0.1,0.6
	l0.4,0.2h-0.3l-0.1,0.1l-0.1,0.2V12l-0.5-0.8L24.1,12l-0.3-0.4l-0.1,0.5l-0.1-0.4c-0.5,0.5-0.1,0.6-0.1,1.3L23,12.8L22.7,13H23
	l-0.2,0.6h-0.5v-0.2H22l-0.1,0.3h-0.4c0.3,0.2,0.3,0.2,0.6,0c0,1-0.3,0.2,0,1.6l0.4-0.2l-0.1,0.4c-0.4,0-0.4,0.1-0.5,0.5l-0.4-0.3
	c-0.3,0-0.3,0-0.6-0.2l-0.2,0.1v-0.2l-0.6,0.1l-0.3-0.2l-0.1,0.4l0.6,0.3c-0.2,0.2-0.6,0.5-0.3,0.6l-0.1-0.2l0.9,0.9h-0.5v0.8
	l-0.1-0.3l-0.1,0.3c-0.3-0.5-0.6-0.9-0.7-1.5L19,16.5l0.7-0.6H19c-0.4,0.5-0.5,0.5-0.6,1l-0.3,0.3c-1.3,0.6-0.6,1.5-0.7,2.4l0.4-0.1
	l0.1,0.4l-1.2,0.8V21l-0.4,0.1c0,0.7-0.6,1.5-1.1,1.8c-0.5,0.4-2.1,1-2.8,1.1c-0.5,0.1-0.6-0.2-1,0c-0.4,0.1-0.5,0.5-0.7,0.6L9,25.1
	l-0.2,0.5c-0.6,0.1-0.7,0.5-1.2,0l-0.8,0.3l0.3-0.5l-0.3-0.3l-0.2,0.6l-0.4-0.4v0.1h0.2L6,25.6l0.3,0.1c-0.5,0.6-0.6,0.4-1.1,0.9
	c-0.4,0.3-0.8,1-1.3,1.1l-1.3,0.8l-0.8,1.6c-0.3-1.1-0.3-0.5-0.2-1.6c-0.2,0.1-0.3,0.2-0.5,0.4c-0.1,0.2-0.5,1.5-0.5,1.7
	c0,0.4,0.3,0.4,0.3,0.8v1c-0.1,0.4-0.6,0.8-0.5,1.8c0,0.6,0.2,0.6,0.5,1l0.3,0.6l0.7,1c0.2,0.2,0.5,0.5,0.6,0.7
	c0.1,0.3,0.1,0.8,0,1.1c-0.3-0.4-0.4-0.6-0.5-1l-0.3,0.6c-0.2-0.8,0-0.6-0.7-1.5c-0.3,0.6-0.1,0.9,0.3,1.4c0.5,0.5,0.9,0.5,0.4,1.1
	l-0.6-1.3L0.7,38l-0.6-1.1H0c-0.1,0.6,0.2,0.7,0.5,1.2L1,39.2l0.6,0.6C2,40,2.1,40.4,2.4,40.7c0.7,1,0.3,1.2,0.6,1.8
	c0.2,0.3,0.6,0.6,0.8,0.8C4,43.7,4,43.9,4.2,44.1c0.2,0.3,0.5,0.4,0.6,1L5,46.5c0.1,0.2,0.5,1.3,0.6,1.5l0.8,1.2
	C6.8,49.8,7.2,50.3,7,51c0.4,0.6,0.1,0.6,0.1,1.2c0.1,0.6,0.5,0.9,0,1.6C7,54,6.9,54.1,6.8,54.1c-0.1,0-0.4-0.1-0.5-0.1
	c0,0.8-0.1,1.3,0.5,1.9c0.7-0.5,1.2,0.4,1.8,0.6l1,0.5c0.4,0.1,0.5-0.1,1,0c0.3-0.2,0.5-0.1,0.8,0l0.7-0.2l0.7-0.4l-0.2-0.3
	c0.5-0.4,0.6-0.4,0.8-0.9c0.8,0.2,0.6,0,1.3-0.2l-0.3-0.2c0.7-1.2,1-0.7,1.7-0.9l0.7-0.3c0.8-0.1,0.8,0,1.5,0l0.6-0.1
	c-0.2,0.3-0.2,0.4,0.1,0.6v-0.3h0.1l0.1,0.2l0.5-0.4c0.7,0.2,0.9-0.3,1.4,0.2l0.4-0.3c1.1,0,1-1.2,1.5-1.8c0.4-0.4,0.7-0.3,1.1-0.5
	l2.1-1.3c0.4-0.2,0.6,0,1,0l1.4-0.2l2.1-0.7c0.4-0.2,0.6-0.4,1-0.5c0.8-0.3,2.1-0.2,2.9-0.2c0.6,0,0.7-0.2,1-0.1
	c0.6,0,1.5,0.9,1.8,1c0.1,0.1,0.4,0.1,0.5,0.1c0.5-0.4,0.7,0.2,1.2,0.4c0.3,0.1,0.6,0,0.9,0l-0.5,0.5l0.7-0.3v0.6
	c0.5-0.1,0.6-0.1,0.7,0.3l-0.4,0.1v0.5h0.2l-0.1,0.3L41,52h0.7c0.1,0.5,0.2,0.5,0.1,0.9c0.7,0.6,0.8,1,0.9,1.8l-0.3-0.2L42.3,55
	l0.3-0.1l0.6,1l0.5-0.3l0.1,0.3H44l0.2-0.9l0.1-0.5l0.9-0.7l1.2-0.6l0.8-1.4l0.4,0.1l0.2-0.6c-0.1,0.4,0,0.5,0.2,0.8
	c-0.7,0.3-0.3,0.6-0.5,0.9c-0.1,0.3-0.4,0.5-0.6,0.8c-0.2,0.5,0,0.5-0.5,1.2l0.3-0.1L46.4,56c-0.7-0.3-0.8,0-1.1,0.7l1-0.2h0.6
	l0.3-0.6l0.5-1.5c0.4,0.7,0.9,1.7,0.3,2.6c-0.2,0.2-0.4,0.3-0.6,0.4v0.2c0.8,0.3,1-0.1,1.4,0c0.6,0.3,1.2,1.4,1.4,1.9
	c0,0.2,0.1,0.6,0.1,0.7c-0.1,0.2-0.2,0.3-0.4,0.4c0.1,0.6,0.1,1,0.6,1.4l-0.1,0.2c0.4,0.4,0.3,0.6,0.6,0.9c0.4,0.3,1.3,0.3,1.3,1
	l0.1,0.1l0.2,0.1l0.3-0.4c0.2,0,1.3,0.6,1.5,0.6c0.4,0.3,1,0.9,1.5,1c0.6,0.1,1.6-1.1,2.2-0.6c0.1,0.1,0.2,0.2,0.3,0.4l0.6-0.2
	l-0.1,0.3c0.6,0.3,1,0.5,1.1,1.1l0.4-0.2c0.1,0.3,0.3,0.5,0.1,0.7h0.6v-0.6c1.1-0.1,1.8-1.1,2.9-1.4c1.1-0.3,2.1,0.4,2.8,0.3
	c0.3-0.1,0.8-0.3,1-0.6c0.1-0.1,0.1-0.2,0.1-0.4l0.2,0.1v-0.7c0.1-0.4,0.5-1.3,0.8-1.4c0-0.2-0.1-0.3,0-0.5c0-0.4,0.7-1.3,1-1.6
	l0.7-0.4v-0.4l0.6-1.3l0.6-0.5l0.5-0.8l1.3-1.4l0.6-0.2l0.5-0.2c0.1-0.3,0.2-0.3,0.5-0.3l0.3-0.8l1-1.3l0.5-0.9l0.2-0.9l0.4-0.6
	l0.5-0.9l0.5-1.3l0.7-0.9L79,46l-0.2-0.6l0.4-1l0.2-1.2l-0.3,0.2l-0.2,1c-0.2-0.2-0.3-0.3-0.1-0.5h-0.3l-0.1-0.6l0.3,0.1
	c0.2-1.1-0.1-1.6,0.6-2.7c-0.4-0.7,0.4-1.3,0.6-1.8c0.1-0.3,0.1-0.7,0.1-1l-0.5,0.3c0.1,0.6,0,0.6-0.5,0.8l0.1,0.4l-0.7-0.6l-0.3-1
	l-0.6-0.6L77,35.9l-0.6-0.3l-0.1-1.1l-0.4-0.2l-0.4,0.2l-0.1-1l0.2-0.7c0.1-0.6-0.1-0.9-0.5-1.4l-0.3,0.3l0.3,0.1L75,32.1l-0.4-0.5
	l-0.2,0.1L74.2,31l-0.4-0.1l-0.1,0.7l-0.4-0.1L73,30.9v-0.2h0.2L73,30.1l0.2-0.6l-0.4-0.1c0.1-0.3,0.1-0.4,0-0.6
	c-0.1-0.8-0.4-0.6-0.6-0.9s-0.3-0.5-0.4-0.7H72V27l0.3,0.4v-0.5l0.3,0.4h0.2l0.1-0.1l-0.3-0.5l0.3-0.2l-0.2,0.1l0.1-0.3h-0.3
	L72.3,26l0.1,0.6l-0.9-0.8l-0.3,0.4c-0.1-0.5-0.2-0.5-0.5-0.7l-0.4,0.1v-0.5L70.2,25H70l-0.2,0.3c-0.1-0.5-0.2-0.9-0.6-1.2
	c-0.1,0.4-0.5,0.1-0.6-0.3L68.5,24l-0.4-0.2l0.3-0.3c-0.5,0.1-1.1-0.2-1.1-0.7c-0.1-0.2,0.1-0.5,0.1-0.7v-0.6l-0.6,0.1l0.5-0.7
	c-0.3-0.1-0.1-0.4-0.1-0.6c0-0.3-0.3-1.2-0.4-1.5H67v-0.2c-0.7-0.3-0.9-0.6-1.2-1.3l0.3-0.1l-0.4-2l0.2-0.4c-0.1-0.3,0-0.4,0.1-0.6
	l-1.6-1.1l-0.1-0.8l-0.6,0.4v-0.4c-0.4,0.3-0.5,0.6-0.8,0.6c-0.3-0.1-0.4-0.6-0.5-0.9l-0.2-0.6l0.1-0.7c0-0.5-0.3-0.4,0-1.3h-0.5
	l0.3-0.6L61.5,8c0.1-0.5,0.1-0.5,0.5-0.7c-0.3-0.1-0.7-0.2-0.8-0.5c-0.3-0.5,0.2-1.5-0.6-2C60.7,4.5,60.7,4.4,60.6,4.1L60.6,4.1z
	 M34.3,4.6c0,0.7-0.6,0.6-0.3,1.3l-0.3-0.1l-0.2,0.4H35l0.7,0.1l1-0.6l-0.1-0.3c0.2-0.2,0.1-0.3,0-0.6l-0.3-0.2L35,5.2
	C35,5.2,34.3,4.6,34.3,4.6z M47.9,4.6l-0.7,1l-0.8,0.7C46.9,6,48,5.4,47.9,4.6z M46.4,9.6l-0.1,0.2l0.1,0.3l0.5-0.2L46.4,9.6z
	 M46.4,10.7H47c-0.1,0.4,0,0.5-0.3,0.7l1.5,0.3v-0.4h-0.6l0.2-0.5l0.3-0.5l-0.4,0.2v-0.4c-0.4,0-0.5,0-0.6,0.4H47l-0.2,0.1l-0.1-0.4
	C46.7,10.2,46.4,10.7,46.4,10.7z M23.1,11.6V12V11.6z M22.6,12.7l-0.2,0.2V13h0.4C22.8,13,22.6,12.7,22.6,12.7z M53,18.1
	c0.3-0.1,0.4,0,0.6-0.3l-0.2-0.1C53.1,17.8,53.1,17.8,53,18.1z M67.7,22.2c-0.1,0.4,0,0.6,0.4,0.6L67.7,22.2z M4.2,25.4l-0.1,0.5
	L4.2,25.4z M4,26c-0.2,0.4-0.3,0.5-0.2,0.8C4.1,26.6,4.2,26.4,4,26z M72.5,27.4l0.3,0.3v-0.2C72.8,27.5,72.5,27.4,72.5,27.4z
	 M74.7,30.1l0.4,0.1L74.7,30.1z M0.2,35.5v1.2C0.3,36.3,0.3,35.9,0.2,35.5z M2,37.5l0.2,0.3L2,37.5z M6.6,50.7H7
	C7,50.7,6.6,50.7,6.6,50.7z M41.2,53.2l0.3-0.3L41.2,53.2z M44.1,55.8l0.2,0.4L44.1,55.8z M44.9,58.4h1.5l0.2-0.3h0.9l-0.1-0.4
	L47,57.9l-0.4-0.2v-0.4c-0.4,0-1.8,0-1.9,0.4C44.6,58,44.8,58.2,44.9,58.4z M58.7,64c0.1,0.6,0.3,0.8-0.5,1l-0.1-0.6l-0.4,0.1
	L58.7,64z M56.1,67.5L56,68.7c0.6-0.4,0.6-0.6,0.6-1.3C56.6,67.4,56.1,67.5,56.1,67.5z M62,68l0.2,0.3L62,68z M62.9,68.9l-0.3,0.4
	l0.3,0.7l-0.2-0.1l-0.3,0.3c0.2,0.1,0.2,0.1,0.4-0.1l0.3,0.2l-0.4,0.2l0.2,0.6l0.7-0.2c-0.1-0.6-0.3-0.6,0-1.2L63,68.9
	C63,68.9,62.9,68.9,62.9,68.9z M57.4,69.3c-0.3,0.5-0.6,1.2-0.6,1.8c0,0.3,0.2,1,0.3,1.2c0.1,0.3,0.3,0.6,0.3,0.7l-0.2,1.4l0.6,1.7
	L58,76v0.6c0.7,0,0.7,0.3,1.4,0.5l0.3-0.5c0.3,0.3,0.6,0.3,0.6-0.2l0.3-0.1L60.5,76l0.5-0.1l-0.1,0.6l0.1,0.1l0.5,0.1
	c0.1-0.5,0.2-0.6,0-1.1c0.4,0,0.5,0,0.6-0.4l-0.3,0.1c0.2-0.5,0.2-0.7,0.6-1l-0.2,0.6c0.5-0.2,0.4-0.6,0.5-1.1
	c0.1-0.6,0.4-1.3,0.4-1.8L63,71.4l-0.5,0.2L62,71.3l-0.4,0.5c-0.6-0.5-1.1,0-1.7-0.1c-0.5-0.1-1.4-0.8-1.8-1.2h-0.5V70h-0.3l0.5-0.6
	L57.4,69.3C57.4,69.4,57.4,69.3,57.4,69.3z"/>
<path class="st1" d="M46.1,39.3c0,1.5-5.1,4.9-6.6,4.9s-6.6-3.4-6.6-4.9l-2.3-13.9c0,0,5.6,1.6,7.1,1.6l1.7-1.8l1.9,1.8
	c1.5,0,7.1-1.6,7.1-1.6L46.1,39.3z"/>
<path class="st0" d="M44.2,29.1L38,35.2l-2-2l-2,2l4.1,4.1l8.2-8.2C46.3,31.1,44.2,29.1,44.2,29.1z"/>
</svg>
