<?xml version="1.0" encoding="utf-8"?>
<!-- Generator: Adobe Illustrator 19.2.1, SVG Export Plug-In . SVG Version: 6.00 Build 0)  -->
<svg version="1.1" id="Layer_1" xmlns="http://www.w3.org/2000/svg" xmlns:xlink="http://www.w3.org/1999/xlink" x="0px" y="0px"
	 viewBox="0 0 80 80" style="enable-background:new 0 0 80 80;" xml:space="preserve">
<style type="text/css">
	.st0{fill:#FFFFFF;stroke:#0D308A;stroke-width:2;stroke-miterlimit:10;}
	.st1{fill:#0D308A;stroke:#FFFFFF;stroke-width:0.5;stroke-miterlimit:10;}
	.st2{fill:none;stroke:#FFFFFF;stroke-width:0.5;stroke-miterlimit:10;}
	.st3{fill:none;stroke:#0D308A;stroke-width:3;stroke-miterlimit:10;}
	.st4{fill:#FFFFFF;stroke:#0D308A;stroke-width:3;stroke-miterlimit:10;}
	.st5{fill:#FFFFFF;}
	.st6{fill:none;stroke:#0D308A;stroke-miterlimit:10;}
	.st7{fill:#0D308A;}
</style>
<path class="st0" d="M77,12.9c0,2.9-8.1,5.3-18.1,5.3c-10,0-18.1-2.4-18.1-5.3s8.1-5.3,18.1-5.3C68.9,7.5,77,9.9,77,12.9L77,12.9z"
	/>
<path class="st1" d="M77.9,10.1c0,2.9-8.6,5.3-19.3,5.3c-10.6,0-19.3-2.4-19.3-5.3c0-3,8.6-5.3,19.3-5.3
	C69.3,4.8,77.9,7.2,77.9,10.1L77.9,10.1z"/>
<path class="st2" d="M76.8,40.8c0,3-8,5.3-18,5.3c-9.9,0-18-2.4-18-5.3"/>
<path class="st3" d="M76.8,14.7v27.5c0,0,0.4,24.2,0,25.4c0.2,2.3-21,9.7-36.1,0V14.7"/>
<path class="st3" d="M76.1,60c0,3.9-7.5,7.1-16.8,7.1c-9.3,0-16.8-3.2-16.8-7.1"/>
<path class="st4" d="M75.9,35.6c0,3-7.6,5.3-17,5.3s-17-2.4-17-5.3"/>
<path class="st5" d="M54.8,10.1c0,0.9-2,1.6-4.5,1.6c-2.5,0-4.5-0.7-4.5-1.6c0-0.9,2-1.6,4.5-1.6C52.8,8.5,54.8,9.2,54.8,10.1
	L54.8,10.1z"/>
<g>
	<path class="st5" d="M46.3,75.3l-10.7-4.2L15.8,54.7L5,48.3l12.9-25l13,7.1L49.1,46l11.1,6"/>
	<path class="st6" d="M41.4,57c-2.3,3.2-8.4,2.8-13.5-1c-5.1-3.7-7.3-9.3-5-12.5c2.3-3.2,8.4-2.8,13.4,1
		C41.5,48.2,43.8,53.8,41.4,57L41.4,57z"/>
	<path class="st7" d="M48,75.4l13.9-21.9c0.7-1.1,0.8-2.5,0.2-3.6c-0.3-0.6-0.8-1.1-1.3-1.5c-0.5-0.3-1.1-0.5-1.7-0.6
		c-2.8-0.2-5.4-1.1-7.9-2.7c-3.4-2.1-6.3-5.3-9.4-8.6c-3.3-3.5-6.6-7.1-10.8-9.8c-3.6-2.3-7.3-3.5-11.3-3.8
		c-1.4-0.1-2.7,0.5-3.4,1.7L2.4,46.6c-0.7,1.1-0.8,2.5-0.2,3.6c0.3,0.6,0.8,1.1,1.3,1.5c0.5,0.3,1.1,0.5,1.7,0.6
		c2.8,0.2,5.4,1.1,7.9,2.7c3.4,2.1,6.3,5.3,9.4,8.6c3.3,3.5,6.6,7.1,10.8,9.8c3.6,2.3,7.3,3.5,11.3,3.8C46,77.2,47.3,76.5,48,75.4
		L48,75.4z M5.5,48.5c4.6-7.3,9.3-14.7,13.8-21.9C36.9,28,41.2,50.2,58.8,51.5c-4.6,7.3-9.3,14.7-13.8,21.9
		C27.3,72.1,23.1,49.9,5.5,48.5L5.5,48.5z M20.6,50.2c0.4,0.3,0.5,0.8,0.2,1.2c-0.3,0.4-0.8,0.6-1.3,0.3c0,0-0.1,0-0.1-0.1l0,0
		c-1.1-0.9-2.1-1.7-3.3-2.5c-1.1-0.7-2.2-1.3-3.4-1.8l-1.8-0.8c-0.1,0-0.1-0.1-0.2-0.1c-0.4-0.3-0.6-0.8-0.3-1.3
		c0.2-0.4,0.7-0.5,1.1-0.4v0l1.9,0.8c1.2,0.5,2.4,1.2,3.6,1.9C18.3,48.4,19.5,49.3,20.6,50.2L20.6,50.2L20.6,50.2z M47.9,50.9
		c1.1,0.7,2.2,1.3,3.4,1.8l1.9,0.8c0.1,0,0.2,0.1,0.3,0.1c0.4,0.3,0.6,0.8,0.3,1.3c-0.3,0.4-0.8,0.5-1.2,0.3l0,0l-2-0.8
		c-1.2-0.5-2.4-1.2-3.6-1.9c-1.2-0.8-2.4-1.7-3.5-2.6v0c-0.4-0.3-0.5-0.8-0.3-1.3c0.3-0.4,0.8-0.6,1.3-0.3c0.1,0,0.1,0.1,0.2,0.2
		C45.7,49.4,46.8,50.2,47.9,50.9z"/>
</g>
</svg>
