<?xml version="1.0" encoding="utf-8"?>
<!-- Generator: Adobe Illustrator 19.2.1, SVG Export Plug-In . SVG Version: 6.00 Build 0)  -->
<svg version="1.1" id="Layer_1" xmlns="http://www.w3.org/2000/svg" xmlns:xlink="http://www.w3.org/1999/xlink" x="0px" y="0px"
	 viewBox="0 0 80 80" style="enable-background:new 0 0 80 80;" xml:space="preserve">
<style type="text/css">
	.st0{fill:#0D308A;}
</style>
<path class="st0" d="M46.9,3.4H33.4c-16.1,0-29.1,13-29.1,29.1C4.2,43,9.8,52,18,57.2h-0.3v17.9l20.2-13.5h9
	c16.1,0,29.1-13,29.1-29.2C76,16.4,63,3.4,46.9,3.4L46.9,3.4z M47.6,55.3h-9.9L25.2,63v-9.1c-8.7-3.2-14.9-11.6-14.9-21.7
	c0-12.7,10-23.1,22.4-23.1h14.9C59.9,9.2,70,19.5,70,32.2S59.9,55.3,47.6,55.3L47.6,55.3z"/>
</svg>
