<?xml version="1.0" encoding="utf-8"?>
<!-- Generator: Adobe Illustrator 19.2.1, SVG Export Plug-In . SVG Version: 6.00 Build 0)  -->
<svg version="1.1" id="Layer_1" xmlns="http://www.w3.org/2000/svg" xmlns:xlink="http://www.w3.org/1999/xlink" x="0px" y="0px"
	 viewBox="0 0 80 80" style="enable-background:new 0 0 80 80;" xml:space="preserve">
<style type="text/css">
	.st0{fill:#0D308A;}
</style>
<path class="st0" d="M46.1,3.8l-1.2,2.6l0,0c0,0.1-0.5,1-1.5,0.5c-1-0.4-1-1.6-1.3-1.8l-3.3-1.5c-0.5-0.2-1.2,0-1.4,0.5L11.9,60.7
	c-0.2,0.5,0,1.2,0.5,1.4l3.3,1.5c0,0,0,0,0,0c0.4,0.1,1.3-0.7,2.3-0.2c1,0.5,0.6,1.5,0.6,1.5l0,0l-1.2,2.6c-0.5,1.1,0,2.3,1.1,2.8
	L35,77.8c1.1,0.5,2.3,0,2.8-1.1l1.2-2.6l0,0c0,0,0.5-1,1.5-0.6c1,0.4,1,1.6,1.3,1.8l3.3,1.5c0.5,0.2,1.2,0,1.4-0.5L72,19.8
	c0.2-0.5,0-1.2-0.5-1.4L68.3,17c0,0-0.1,0-0.1,0c-0.4-0.1-1.2,0.7-2.3,0.2c-1-0.5-0.6-1.5-0.6-1.5l0,0h0l1.2-2.6
	c0.5-1.1,0-2.3-1.1-2.8L48.9,2.8C47.8,2.3,46.6,2.8,46.1,3.8L46.1,3.8z M54.6,11.9L54.6,11.9l3.5,2c0,0,1.3,0.7,0.9,1.6
	c-0.4,0.9-1.7,0.4-1.7,0.4s-1-0.4-1.3-0.4c-0.3-0.1-0.5-0.1-0.7-0.1c-0.3,0.1-0.4,0.2-0.7,0.7c-0.3,0.5-0.4,0.7-0.4,1.1
	c0,0.4,1.4,3.3,1.4,3.3s0.7,1.1,0.3,1.9c-0.4,0.8-1.5,1-1.5,1l-2.5,0.8c0,0-0.6,0.1-0.9,0.3c-0.3,0.1-0.5,0.3-0.7,0.8
	c-0.2,0.4-0.3,1-0.2,1.2c0.1,0.2,1.9,1.4,1.9,1.4s1.1,0.8,0.7,1.5c-0.4,0.8-1.6,0.3-1.6,0.3s-1-0.4-1.3-0.5c-0.2-0.1-0.5-0.1-0.8,0
	c-0.3,0.1-0.6,0.3-0.8,0.8L45,37.3c1.2,1.2,1.6,3.1,0.8,4.8c-0.7,1.7-2.4,2.6-4.1,2.5c-1.2,2.6-3.1,6.9-3.3,7.2
	c-0.2,0.4-0.2,0.9,0,1.1c0.1,0.3,0.3,0.4,0.5,0.6c0.2,0.1,1.2,0.6,1.2,0.6s1.1,0.6,0.8,1.4c-0.4,0.8-1.6,0.5-1.6,0.5s-2-0.6-2.3-0.5
	c-0.3,0.1-0.6,0.5-0.8,1c-0.2,0.4-0.2,0.7-0.1,1c0.1,0.3,0.4,0.8,0.4,0.8l1.1,2.4c0,0,0.6,1,0.2,1.8c-0.4,0.8-1.7,1-1.7,1
	s-3.1,1-3.4,1.2c-0.3,0.2-0.4,0.4-0.6,1c-0.2,0.5-0.2,0.7-0.1,1c0.1,0.3,0.3,0.4,0.5,0.5l1.2,0.7c0,0,1.3,0.6,0.9,1.5
	c-0.4,0.9-1.8,0.4-1.8,0.4l-3.8-1.3l0,0l0,0l0,0l0,0l-3.5-2c0,0-1.3-0.7-0.9-1.6s1.7-0.4,1.7-0.4s1,0.3,1.3,0.4
	c0.3,0.1,0.5,0.1,0.7,0.1c0.3-0.1,0.4-0.2,0.7-0.7c0.3-0.5,0.4-0.7,0.4-1.1c0-0.4-1.4-3.3-1.4-3.3s-0.7-1.1-0.3-1.9
	c0.4-0.8,1.5-1,1.5-1l2.5-0.8c0,0,0.6-0.1,0.9-0.3c0.3-0.1,0.5-0.3,0.7-0.8c0.2-0.4,0.3-1,0.2-1.2c-0.1-0.2-1.9-1.4-1.9-1.4
	s-1.1-0.8-0.7-1.6c0.4-0.8,1.6-0.3,1.6-0.3s1,0.4,1.3,0.5c0.2,0.1,0.5,0.1,0.8,0c0.3-0.1,0.6-0.3,0.8-0.8c0.1-0.3,2.1-4.7,3.3-7.3
	c-1.1-1.2-1.4-3-0.7-4.6c0.7-1.6,2.3-2.5,3.9-2.5l3.3-7.3c0.2-0.4,0.2-0.9,0-1.1c-0.1-0.3-0.3-0.4-0.5-0.6c-0.2-0.1-1.2-0.6-1.2-0.6
	s-1.1-0.6-0.8-1.4c0.4-0.8,1.6-0.5,1.6-0.5s2,0.6,2.3,0.5c0.3-0.1,0.6-0.5,0.8-1c0.2-0.4,0.2-0.7,0.1-1c-0.1-0.3-0.4-0.8-0.4-0.8
	l-1.1-2.4c0,0-0.6-1-0.2-1.8c0.4-0.8,1.7-1,1.7-1s3.1-0.9,3.4-1.2c0.3-0.2,0.4-0.4,0.6-1c0.2-0.5,0.2-0.8,0.1-1
	c-0.1-0.3-0.3-0.4-0.5-0.5c-0.3-0.1-1.2-0.7-1.2-0.7S48.6,11.9,49,11c0.4-0.9,1.8-0.4,1.8-0.4L54.6,11.9L54.6,11.9L54.6,11.9
	L54.6,11.9L54.6,11.9z"/>
</svg>
