<?xml version="1.0" encoding="utf-8"?>
<!-- Generator: Adobe Illustrator 19.2.1, SVG Export Plug-In . SVG Version: 6.00 Build 0)  -->
<svg version="1.1" id="SCA" xmlns="http://www.w3.org/2000/svg" xmlns:xlink="http://www.w3.org/1999/xlink" x="0px" y="0px"
	 viewBox="0 0 80 80" style="enable-background:new 0 0 80 80;" xml:space="preserve">
<style type="text/css">
	.st0{fill:#FFFFFF;}
	.st1{fill:#0D308A;}
</style>
<path class="st0" d="M78.2,26C76,25.3,18.2,7.6,16,7c-2.2-0.6-5.2,0.9-5.8,3.2c-0.7,2.3-10.4,34-11.1,36.3c-0.7,2.3,0.8,5.3,3.1,5.9
	s60,18.3,62.2,18.9c2.2,0.6,5.2-0.9,5.8-3.2c0.7-2.3,10.4-34,11.1-36.3C82,29.6,80.5,26.7,78.2,26z M15.2,9.7l-1.3,4.1
	c0,0,0.7-2.3,2.9-1.6l57.8,17.6c2.2,0.6,1.5,2.9,1.5,2.9l1.3-4.1 M65,69.5l1.5-4.9c0,0-0.7,2.3-2.9,1.6L5.8,48.5
	c-2.2-0.7-1.6-2.9-1.6-2.9l-1.5,4.9"/>
<path class="st0" d="M64.3,66.6L4.8,48.2L15.6,11l61.7,19.1L64.3,66.6z"/>
<path class="st1" d="M11.2,44.4l8.4,2.5l1.3-4.2l-8.4-2.5C12.4,40.2,11.2,44.4,11.2,44.4z M23.8,48.3l8.4,2.5l1.3-4.2l-8.4-2.5
	L23.8,48.3z M31.9,36.8l-16.8-5.1L13.8,36L30.7,41L31.9,36.8z M24.8,30.1l4.2,1.3l10.9-5.9l-4.2-1.3C35.7,24.2,24.8,30.1,24.8,30.1z
	 M34.9,42.4l12.6,3.8l1.3-4.2l-12.6-3.8L34.9,42.4z M76.2,27.2c-2.1-0.6-56.9-17.2-59-17.8s-4.8,0.8-5.5,2.9
	c-0.6,2.1-9.6,31.7-10.2,33.8c-0.6,2.1,0.8,4.8,2.9,5.5c2.1,0.6,56.9,17.2,59,17.8c2.1,0.6,4.8-0.8,5.5-2.9
	c0.6-2.1,9.6-31.7,10.2-33.8C79.8,30.6,78.3,27.8,76.2,27.2z M71.2,44.1L65.5,63c0,0-0.6,2.1-2.7,1.5L7.8,48
	c-2.1-0.6-1.5-2.7-1.5-2.7L12,26.3l4.2,1.3l11.1-5.9l-12.6-3.8l0.6-2.1c0,0,0.6-2.1,2.7-1.5l54.8,16.5c2.1,0.6,1.5,2.7,1.5,2.7
	l-0.6,2.1L48.4,28l-10.9,5.9C37.5,33.8,71.2,44.1,71.2,44.1z"/>
<path class="st1" d="M50.2,56.6h-0.5v-6.2c0-3.4-3.1-6.2-6.8-6.2h-4.6c-3.8,0-6.9,2.7-6.9,6.1v6.2h-0.6c-0.9,0-1.8,0.6-1.8,1.6
	l-0.1,15.3c0,0.8,0.7,1.6,1.7,1.6L50.1,75c0.9,0,1.8-0.6,1.8-1.6L52,58.1C51.9,57.2,51.2,56.6,50.2,56.6z M42.7,70.9H38l1.1-4.4
	c-0.6-0.4-0.9-1.1-0.9-1.7c0-1.2,1.1-2,2.3-2c1.3,0,2.3,0.9,2.3,2.1c0,0.7-0.4,1.4-1.1,1.7L42.7,70.9z M45.1,56.5h-9.3v-6.2
	c0-1.2,1.1-2,2.3-2h4.6c1.3,0,2.3,0.9,2.3,2.1C45.1,50.4,45.1,56.5,45.1,56.5z"/>
</svg>
