<?xml version="1.0" encoding="utf-8"?>
<!-- Generator: Adobe Illustrator 19.2.1, SVG Export Plug-In . SVG Version: 6.00 Build 0)  -->
<svg version="1.1" id="CLOCK245" xmlns="http://www.w3.org/2000/svg" xmlns:xlink="http://www.w3.org/1999/xlink" x="0px" y="0px"
	 viewBox="0 0 80 80" style="enable-background:new 0 0 80 80;" xml:space="preserve">
<style type="text/css">
	.st0{fill:#FFFFFF;stroke:#0D308A;stroke-width:5;stroke-miterlimit:10;}
	.st1{fill:none;stroke:#0D308A;stroke-width:0.75;stroke-miterlimit:10;}
	.st2{fill:none;stroke:#0D308A;stroke-width:3;stroke-miterlimit:10;}
	.st3{fill:#0D308A;}
</style>
<g>
	<circle class="st0" cx="41" cy="39.8" r="32.9"/>
	<line class="st1" x1="41.8" y1="12.6" x2="41.5" y2="19.5"/>
	<line class="st1" x1="40.5" y1="61.3" x2="40.2" y2="68.2"/>
	<line class="st1" x1="68.9" y1="41.1" x2="61.9" y2="40.9"/>
	<line class="st1" x1="20.1" y1="39.8" x2="13.1" y2="39.7"/>
	<line class="st1" x1="60.1" y1="60.6" x2="55.4" y2="55.5"/>
	<line class="st1" x1="26.7" y1="25.2" x2="21.9" y2="20.2"/>
	<line class="st1" x1="20.7" y1="59.6" x2="25.8" y2="54.8"/>
	<line class="st1" x1="56.2" y1="26" x2="61.3" y2="21.2"/>
	<line class="st2" x1="35.7" y1="26.6" x2="41" y2="39.8"/>
	<line class="st2" x1="41" y1="39.8" x2="60.5" y2="49.2"/>
	<path class="st3" d="M45.8,39.5c0,2.6-2.2,4.6-4.8,4.4c-2.6,0-4.6-2.2-4.4-4.8c0-2.6,2.2-4.6,4.8-4.4
		C43.7,34.7,45.8,36.9,45.8,39.5z"/>
</g>
</svg>
