<?xml version="1.0" encoding="utf-8"?>
<!-- Generator: Adobe Illustrator 19.2.1, SVG Export Plug-In . SVG Version: 6.00 Build 0)  -->
<svg version="1.1" id="AWARDS" xmlns="http://www.w3.org/2000/svg" xmlns:xlink="http://www.w3.org/1999/xlink" x="0px" y="0px"
	 viewBox="0 0 80 80" style="enable-background:new 0 0 80 80;" xml:space="preserve">
<style type="text/css">
	.st0{fill:none;stroke:#0D308A;stroke-width:4;stroke-miterlimit:10;}
</style>
<path class="st0" d="M63.1,18.2V8.9H17v9.3H3.1v9.2c0,7.6,6.2,13.9,13.9,13.9c1.5,0,2.9-0.2,4.2-0.7c3.3,4.7,8.5,8.2,14.3,9.4v14.3
	h-4.6c-5.1,0-9.2,4.2-9.2,9.2h37c0-5.1-4.2-9.2-9.3-9.2h-4.6V50.1c5.9-1.2,11-4.6,14.3-9.4c1.3,0.4,2.7,0.7,4.2,0.7
	c7.6,0,13.9-6.2,13.9-13.9v-9.2L63.1,18.2L63.1,18.2z M16.8,34.9c-3.6,0-6.6-2.9-6.6-6.6v-3.6h6.6v3.6c0,2.3,0.4,4.5,1.2,6.5
	C17.6,34.9,17.1,34.9,16.8,34.9z M69.7,28.3c0,3.6-2.9,6.6-6.6,6.6c-0.4,0-0.8-0.1-1.2-0.1c0.7-2,1.2-4.2,1.2-6.5v-3.6h6.6
	C69.7,24.7,69.7,28.3,69.7,28.3z"/>
</svg>
