<?xml version="1.0" encoding="utf-8"?>
<!-- Generator: Adobe Illustrator 19.2.1, SVG Export Plug-In . SVG Version: 6.00 Build 0)  -->
<svg version="1.1" id="Layer_1" xmlns="http://www.w3.org/2000/svg" xmlns:xlink="http://www.w3.org/1999/xlink" x="0px" y="0px"
	 viewBox="0 0 80 80" style="enable-background:new 0 0 80 80;" xml:space="preserve">
<style type="text/css">
	.st0{fill:#0D308A;}
	.st1{fill:none;stroke:#0D308A;stroke-width:5;stroke-miterlimit:10;}
</style>
<path class="st0" d="M23.8,53.3v-0.7h32.8v0.7c0,0.5-0.3,0.8-0.8,1.2c-0.5,0.4-1.2,0.5-1.9,0.5H26.5c-0.7,0-1.4-0.2-1.9-0.5
	S23.8,53.7,23.8,53.3z M25.1,49.4V32.4c0-0.6,0.3-1.3,0.7-1.7c0.5-0.5,1.1-0.7,1.7-0.7h25.4c0.6,0,1.3,0.3,1.7,0.7s0.7,1.1,0.7,1.7
	v16.9c0,0.6-0.3,1.3-0.7,1.7c-0.5,0.5-1,0.7-1.6,0.7H27.5c-0.6,0-1.3-0.3-1.7-0.7C25.4,50.6,25.1,50,25.1,49.4z M27.1,47.2
	c0,0.2,0,0.3,0.2,0.4c0.1,0.1,0.2,0.2,0.4,0.2H53c0.1,0,0.3-0.1,0.4-0.2c0.1-0.1,0.2-0.2,0.2-0.4V32.4c0-0.1-0.1-0.3-0.2-0.4
	c-0.1-0.1-0.2-0.2-0.4-0.2H27.5c-0.1,0-0.3,0-0.4,0.2c-0.1,0.1-0.2,0.2-0.2,0.4L27.1,47.2C27,47.2,27.1,47.2,27.1,47.2z M38.6,53.8
	c0,0.2,0.1,0.3,0.3,0.3h2.7c0.2,0,0.3-0.1,0.3-0.3s-0.1-0.3-0.3-0.3h-2.7C38.7,53.6,38.6,53.6,38.6,53.8z M12.6,55.6h54.9v4.6H12.6
	V55.6z"/>
<path class="st0" d="M22.8,59.3h4.1v10.5h-4.1V59.3z M54.6,59.3h4.1v10.5h-4.1V59.3z"/>
<circle class="st1" cx="40" cy="40" r="32.8"/>
<path class="st1" d="M18.5,14.8l46.8,46.8"/>
</svg>
