<?xml version="1.0" encoding="utf-8"?>
<!-- Generator: Adobe Illustrator 19.2.1, SVG Export Plug-In . SVG Version: 6.00 Build 0)  -->
<svg version="1.1" id="SMART" xmlns="http://www.w3.org/2000/svg" xmlns:xlink="http://www.w3.org/1999/xlink" x="0px" y="0px"
	 viewBox="0 0 80 80" style="enable-background:new 0 0 80 80;" xml:space="preserve">
<style type="text/css">
	.st0{fill:#0D308A;}
	.st1{fill:#FFFFFF;}
</style>
<g>
	<path class="st0" d="M49.9,50.2c-2.8,0.6-5.5-1.2-6-4l-1-5c-0.6-2.8,1.2-5.5,4-6l30-6.1l3.1,15L49.9,50.2z M40.4,41.7l1,5
		c0.8,4.1,4.9,6.8,9,6l25-5.1l2,10c0.8,4.1-1.8,8.2-6,9L19,77.4c-4.1,0.8-8.2-1.8-9-6L0.3,23.9c-0.8-4.1,1.8-8.2,6-9l24-4.9
		l-5.4,3.6l-19.4,4c-2.1,0.4-3.4,2.4-3,4.5s2.4,3.4,4.5,3l61.2-12.5l3.1,15l-25,5.1C42.2,33.6,39.5,37.6,40.4,41.7z M11.8,29.4l-5,1
		l1,5l2.5-0.5l-0.5-2.5l2.5-0.5L11.8,29.4z M13.3,36.9l-5,1l1,5l2.6-0.5l-0.6-2.5l2.5-0.5L13.3,36.9z M14.9,44.4l-5,1l1,5l2.6-0.5
		l-0.6-2.5l2.5-0.5L14.9,44.4z M16.4,51.9l-5,1l1,5l2.6-0.5l-0.6-2.5l2.5-0.5L16.4,51.9z M17.9,59.4l-5,1l1,5l2.5-0.5l-0.5-2.5
		l2.5-0.5L17.9,59.4z M19.5,66.9l-5,1l1,5l2.6-0.5L17.5,70l2.5-0.5L19.5,66.9z M52.8,5.4l5.9-1.2c2.2-0.4,4.3,0.1,6,1.3L54.5,7.6
		L52.8,5.4z"/>
	<polygon class="st0" points="19.2,20.8 46,2.5 54.1,13.7 	"/>
	<circle class="st1" cx="48.3" cy="43.1" r="2.3"/>
</g>
</svg>
